<?xml version="1.0" encoding="UTF-8" standalone="no"?>
<svg
   xmlns:dc="http://purl.org/dc/elements/1.1/"
   xmlns:cc="http://creativecommons.org/ns#"
   xmlns:rdf="http://www.w3.org/1999/02/22-rdf-syntax-ns#"
   xmlns:svg="http://www.w3.org/2000/svg"
   xmlns="http://www.w3.org/2000/svg"
   viewBox="0 0 3370.3938 2383.937"
   id="svg23"
   height="2383.937"
   width="3370.3938"
   version="1.1">
  <metadata
     id="metadata29">
    <rdf:RDF>
      <cc:Work
         rdf:about="">
        <dc:format>image/svg+xml</dc:format>
        <dc:type
           rdf:resource="http://purl.org/dc/dcmitype/StillImage" />
      </cc:Work>
    </rdf:RDF>
  </metadata>
  <defs
     id="defs27" />
  <g
     id="Layer1000">
    <g
       id="Layer1001">
      <path
         id="path2"
         style="fill:#656c70;fill-rule:evenodd"
         d="m 1688.7209,1157.6363 h 109.9707 v -44.4447 H 1688.7209 Z M 1582.51,1363.7072 V 1086.717 c 0.8207,-36.6243 29.7731,-65.8776 67.2612,-66.4834 h 173.5971 c 28.0535,0 48.5172,5.667 61.5434,16.9345 13.0223,11.3417 19.5374,28.968 19.5374,52.8748 v 43.7569 c 0,16.0239 -2.9898,28.206 -8.9694,36.4094 -5.968,8.1956 -16.4734,14.9374 -31.4186,20.2292 15.254,5.366 25.8297,12.0335 31.6531,19.9243 5.8194,7.9689 8.7349,20.3073 8.7349,37.0151 v 116.3294 h -47.7746 c -32.8763,0 -58.0259,-29.4956 -57.5218,-58.8858 v -68.8635 h -110.4318 v 127.7493 z" />
      <path
         id="path4"
         style="fill:#656c70;fill-rule:evenodd"
         d="m 1920.819,1363.7072 v -270.1898 c 0.6293,-44.9411 34.9516,-71.1929 78.3529,-73.2838 h 208.1071 v 92.958 h -178.9359 v 39.4656 h 178.0175 v 77.704 h -178.0175 v 39.4657 h 177.5602 v 93.8803 z" />
      <path
         id="path6"
         style="fill:#656c70;fill-rule:evenodd"
         d="m 2212.26,1363.7072 v -93.8803 h 232.905 v -37.2419 h -118.5532 c -41.154,0 -68.2851,-4.5961 -81.4677,-13.7179 -13.1747,-9.1141 -19.768,-25.3647 -19.768,-48.7361 v -82.3119 c 0,-23.985 7.8205,-41.2243 23.4496,-51.7258 15.6369,-10.5718 41.6152,-15.8597 77.7861,-15.8597 h 201.8617 v 92.958 h -198.2583 v 38.086 h 142.5382 c 26.3652,0 45.7541,5.3621 58.1628,16.1685 12.4165,10.8063 18.6268,27.6665 18.6268,50.5025 v 84.223 c 0,19.1583 -6.6675,34.1778 -20.0025,45.1366 -13.2568,10.9587 -31.8015,16.399 -55.4035,16.399 z" />
      <path
         id="path8"
         style="fill:#656c70;fill-rule:evenodd"
         d="m 2651.5896,1363.7072 v -250.5156 h -132.8965 v -92.958 h 346.2485 v 92.958 h -100.6182 v 250.5156 z" />
      <path
         id="path10"
         style="fill:#656c70;fill-rule:evenodd"
         d="m 1873.5211,1271.5549 h 123.7463 v 92.1525 h -123.7463 z" />
    </g>
    <g
       id="Layer1002">
      <path
         id="path13"
         style="fill:#b1c900;fill-rule:evenodd"
         d="m 523.8321,1323.386 c -11.9555,-41.7626 -18.377,-85.8631 -18.377,-131.4625 0,-260.965 209.7109,-473.0167 469.7617,-476.8803 z" />
      <path
         id="path15"
         style="fill:#b1c900;fill-rule:evenodd"
         d="m 1090.3105,1656.6257 c -34.6681,8.0222 -70.7787,12.2693 -107.8813,12.2693 -127.0867,0 -242.5558,-49.7445 -328.057,-130.7976 h 435.9383 z" />
      <path
         id="path17"
         style="fill:#b1c900;fill-rule:evenodd"
         d="m 1343.2345,879.9994 c 72.3659,83.6323 116.1608,192.6772 116.1608,311.9241 0,119.2469 -43.7949,228.2757 -116.1608,311.9107 z" />
      <path
         id="path19"
         style="fill:#656c70;fill-rule:evenodd"
         d="m 840.443,1311.2455 h 260.359 l 14.7923,-414.1668 z" />
    </g>
  </g>
</svg>
